<?xml version="1.0" encoding="UTF-8"?>
<!-- Generator: Adobe Illustrator 18.1.1, SVG Export Plug-In . SVG Version: 6.00 Build 0)  -->
<svg version="1.1" id="Layer_1" xmlns="http://www.w3.org/2000/svg" xmlns:xlink="http://www.w3.org/1999/xlink" x="0px" y="0px" viewBox="0 0 76 35" enable-background="new 0 0 76 35" xml:space="preserve">
<g>
	<g>
		<path fill="#009444" d="M35.1,35H0V0h35.1V35z M1.6,33.4h31.9V1.6H1.6V33.4z"/>
		<g>
			<path fill="#009444" d="M27.5,17.5c0,5.5-4.4,9.9-9.9,9.9c-5.5,0-9.9-4.4-9.9-9.9c0-5.5,4.4-9.9,9.9-9.9     C23,7.6,27.5,12,27.5,17.5z"/>
		</g>
	</g>
	<g>
		<path fill="#ED1C24" d="M76,35H40.9V0H76V35z M42.5,33.4h31.9V1.6H42.5V33.4z"/>
		<g>
			<path fill="#ED1C24" d="M68.4,17.5c0,5.5-4.4,9.9-9.9,9.9c-5.5,0-9.9-4.4-9.9-9.9c0-5.5,4.4-9.9,9.9-9.9     C63.9,7.6,68.4,12,68.4,17.5z"/>
		</g>
	</g>
</g>
</svg>